<svg width="48" height="48" viewBox="0 0 48 48" fill="none" xmlns="http://www.w3.org/2000/svg">
<rect width="48" height="48" rx="9" fill="#212227"/>
<path d="M28 34.08L28.16 35.584C27.5627 35.6907 27.04 35.744 26.592 35.744C25.5893 35.744 24.6293 35.072 23.712 33.728C22.7947 32.4053 22.0693 30.848 21.536 29.056C21.024 27.264 20.704 25.536 20.576 23.872C19.5093 26.6453 18.496 28.6613 17.536 29.92C16.5973 31.1573 15.6267 31.776 14.624 31.776C14.112 31.776 13.7067 31.5733 13.408 31.168C13.1093 30.7413 12.96 30.1867 12.96 29.504C12.96 27.9253 13.6853 25.92 15.136 23.488C16.608 21.056 18.3253 19.0613 20.288 17.504C20.3307 17.376 20.512 16.5973 20.832 15.168C21.1733 13.7387 21.376 12.9493 21.44 12.8L23.296 12.64C23.296 13.0027 23.2 13.76 23.008 14.912C25.888 12.7147 28.256 11.616 30.112 11.616C30.9867 11.616 31.68 11.8613 32.192 12.352C32.704 12.8213 32.96 13.4613 32.96 14.272C32.96 16.2987 31.936 18.3467 29.888 20.416C27.84 22.464 25.6533 23.6693 23.328 24.032C23.4987 27.1253 24.032 29.5467 24.928 31.296C25.8453 33.0453 26.8693 33.9733 28 34.08ZM18.688 23.392C19.264 21.856 19.6587 20.6293 19.872 19.712C18.6987 20.8 17.6107 22.2507 16.608 24.064C15.6267 25.8773 15.136 27.2213 15.136 28.096C15.136 28.544 15.3173 28.768 15.68 28.768C16.32 28.768 17.3227 26.976 18.688 23.392ZM20.864 22.944C23.1253 22.944 25.152 22.1547 26.944 20.576C28.736 18.9973 29.632 17.4293 29.632 15.872C29.632 15.296 29.4827 14.848 29.184 14.528C28.9067 14.208 28.4587 14.048 27.84 14.048C27.2213 14.048 26.3253 14.4 25.152 15.104C23.9787 15.7867 23.136 16.352 22.624 16.8C21.9627 19.424 21.376 21.472 20.864 22.944Z" fill="#F8F8F6"/>
</svg>
